<?xml version="1.0" encoding="UTF-8" standalone="no"?>
<!-- Created with Inkscape (http://www.inkscape.org/) -->

<svg
   width="512"
   height="512"
   viewBox="0 0 512 512"
   version="1.1"
   id="svg1"
   inkscape:version="1.3 (0e150ed6c4, 2023-07-21)"
   sodipodi:docname="Lucidium.svg"
   inkscape:export-filename="Lucidium.png"
   inkscape:export-xdpi="96"
   inkscape:export-ydpi="96"
   xmlns:inkscape="http://www.inkscape.org/namespaces/inkscape"
   xmlns:sodipodi="http://sodipodi.sourceforge.net/DTD/sodipodi-0.dtd"
   xmlns="http://www.w3.org/2000/svg"
   xmlns:svg="http://www.w3.org/2000/svg">
  <sodipodi:namedview
     id="namedview1"
     pagecolor="#ffffff"
     bordercolor="#000000"
     borderopacity="0.25"
     inkscape:showpageshadow="2"
     inkscape:pageopacity="0.0"
     inkscape:pagecheckerboard="0"
     inkscape:deskcolor="#d1d1d1"
     inkscape:document-units="px"
     inkscape:zoom="0.91601562"
     inkscape:cx="255.45416"
     inkscape:cy="256"
     inkscape:window-width="1280"
     inkscape:window-height="717"
     inkscape:window-x="0"
     inkscape:window-y="0"
     inkscape:window-maximized="1"
     inkscape:current-layer="layer1" />
  <defs
     id="defs1">
    <inkscape:path-effect
       effect="spiro"
       id="path-effect3"
       is_visible="true"
       lpeversion="1" />
    <inkscape:path-effect
       effect="spiro"
       id="path-effect2"
       is_visible="true"
       lpeversion="1" />
  </defs>
  <g
     inkscape:label="Layer 1"
     inkscape:groupmode="layer"
     id="layer1">
    <rect
       style="fill:#6c00ef;fill-opacity:1;stroke:#3f71b4;stroke-width:12;stroke-linecap:round;stroke-linejoin:round;stroke-opacity:1;stroke-dasharray:none"
       id="rect3"
       width="503.26172"
       height="503.26172"
       x="4.3691387"
       y="4.3691373" />
    <path
       style="fill:#7f1cb7;fill-opacity:0.69756097;stroke:#000000;stroke-width:8.89;stroke-linecap:round;stroke-linejoin:round;stroke-opacity:1"
       d="M 113.53518,103.71002 C 89.813319,84.84989 58.472062,76.196269 28.311716,79.160173 c -30.1603463,2.963904 -58.892841,17.288115 -80.191292,38.847497 -21.298452,21.55939 -35.177325,50.10031 -40.063147,80.0095 -4.885822,29.9092 -0.909805,61.06545 10.311901,89.21691 11.221707,28.15146 29.565216,53.2942 52.221101,73.42234 22.6558855,20.12814 49.555826,35.29151 78.152438,45.32471 57.193223,20.06638 120.165473,19.43118 179.419333,6.67559 12.92313,-2.78197 25.85137,-6.17105 37.59876,-12.23285 11.74739,-6.06181 22.33862,-15.02503 28.38008,-26.7829 4.68393,-9.11584 6.45216,-19.61979 5.5594,-29.82962 -0.89277,-10.20983 -4.38816,-20.11929 -9.62422,-28.92958 C 279.60394,297.26118 262.56098,284.379 244.33385,275.00231 226.10673,265.62562 206.47537,259.36539 187.34367,252.00819 168.21196,244.65098 149.22186,235.98412 133.68458,222.61462 108.941,201.3233 94.702443,168.19317 96.867382,135.62205 99.032321,103.05093 117.75749,71.88686 145.80074,55.179345 c 14.02162,-8.353758 30.14259,-13.171062 46.45195,-13.800318 16.30936,-0.629256 32.77296,2.938998 47.32243,10.335229 14.54946,7.396232 27.14768,18.611058 36.11268,32.249973 8.96499,13.638914 14.26727,29.673011 15.12179,45.972121 0.78017,14.881 -2.21414,30.13228 -9.78246,42.96869 -7.56833,12.8364 -19.89867,23.06943 -34.30645,26.87321 -13.94985,3.68289 -29.06076,1.22341 -42.13214,-4.88404 -13.07139,-6.10744 -24.27528,-15.65633 -34.07801,-26.24258 -19.60546,-21.17248 -34.38847,-46.98385 -56.97535,-64.94161 z"
       id="path3"
       inkscape:path-effect="#path-effect3"
       inkscape:original-d="m 113.53518,103.71002 c -44.395165,-32.022742 76.41791,205.96446 114.62687,308.9467 38.20895,102.98223 43.98589,-26.0105 65.97884,-39.01575 21.99294,-13.00525 -106.97088,-100.68423 -160.45631,-151.02635 -53.485439,-50.34211 104.75001,-61.78551 157.12501,-92.67827 52.37501,-30.892754 -29.39261,46.56127 -44.08891,69.8419 -14.6963,23.28063 -88.79033,-64.04549 -133.1855,-96.06823 z"
       transform="translate(135.23451,20.646586)" />
    <path
       style="fill:#38ed8a;fill-opacity:1;stroke:#000000;stroke-width:8.89;stroke-linecap:round;stroke-linejoin:round;stroke-opacity:1"
       d="m 72.051173,276.19616 c -1.272379,8.72143 -0.248534,17.72766 2.629116,26.05842 2.87765,8.33075 7.582198,15.9892 13.460294,22.55656 11.756192,13.13474 27.957577,21.7107 44.870447,26.679 33.82575,9.93661 70.04441,6.18583 104.97618,10.94909 18.91617,2.57939 37.3955,7.65132 56.15368,11.20174 18.75817,3.55042 38.14307,5.56626 56.89552,1.98577 9.37623,-1.79025 18.52439,-4.99012 26.72765,-9.87122 8.20327,-4.8811 15.44626,-11.47209 20.67067,-19.4611 5.2244,-7.98901 8.38067,-17.39403 8.54704,-26.93819 0.16638,-9.54416 -2.73171,-19.19206 -8.51695,-26.7848 -4.68059,-6.14297 -11.10821,-10.82344 -18.10227,-14.09865 -6.99407,-3.27522 -14.55651,-5.19707 -22.17969,-6.43446 -15.24636,-2.47478 -30.89067,-2.28239 -45.96111,-5.66732 -16.17115,-3.63216 -31.48598,-11.48805 -43.30266,-23.10979 -11.81667,-11.62174 -20.00518,-27.05468 -22.19841,-43.48296 -1.98987,-14.90505 1.04768,-30.51933 8.92845,-43.32611 7.88076,-12.80678 20.63108,-22.6406 35.16046,-26.51579 14.52938,-3.87519 30.68789,-1.61629 43.33133,6.52394 12.64345,8.14022 21.4593,22.14376 22.83989,37.11754 1.33832,14.5153 -4.21775,29.24716 -13.74586,40.27894 -9.52811,11.03179 -22.76384,18.5099 -36.79131,22.47415 -28.05493,7.92851 -57.98354,2.25543 -86.39275,-4.29106 -28.40922,-6.5465 -57.57123,-13.98414 -86.36631,-9.42524 -14.39754,2.27945 -28.48475,7.67509 -39.81201,16.84995 -11.327263,9.17487 -19.717038,22.30742 -21.821397,36.73159 z"
       id="path2"
       inkscape:path-effect="#path-effect2"
       inkscape:original-d="m 72.051173,276.19616 c -94.976546,34.20611 110.624027,57.49538 165.936037,86.24307 55.31201,28.74769 106.98507,-46.57853 160.47761,-69.8678 53.49254,-23.28927 -57.49538,-17.46695 -86.24307,-26.20043 -28.74769,-8.73347 -43.66738,-44.39516 -65.50107,-66.59275 -21.83369,-22.19758 73.50675,-17.46695 110.26013,-26.20042 36.75338,-8.73348 -189.95309,68.41222 -284.929637,102.61833 z" />
  </g>
</svg>
